# xmcd
#
# Track frame offsets:
#        150
#        26607
#        49400
#        68815
#        85987
#        111517
#        137335
#        162057
#        188580
#        211067
#        229175
#        250307
#        269437
#        287305
#        305867
#        328280
#        337785
#
# Disc length: 4636 seconds
#
# Revision: 0
# Processed by: cddbd v1.5.1PL0 Copyright (c) Steve Scherf et al.
# Submitted via: ExactAudioCopy v0.95a5
#
DISCID=f4121a11
DTITLE=Jeff Beck - Star Box
DYEAR=1993
DGENRE=Rock
TTITLE0=New Ways Train Train
TTITLE1=Definity Maybe
TTITLE2=Superstition
TTITLE3=Black Cat Moan
TTITLE4=Scatterbrain
TTITLE5=Cause We've Ended As Lovers
TTITLE6=Goodbye Pork Pie Hat
TTITLE7=Blue Wind
TTITLE8=Star Cycle
TTITLE9=El Becko
TTITLE10=Escape
TTITLE11=Wild Thing
TTITLE12=The Train Kept A-Rollin'
TTITLE13=Big Block
TTITLE14=Stand On It
TTITLE15=The Jungle
TTITLE16=Hound Dog
EXTD=
EXTT0=
EXTT1=
EXTT2=
EXTT3=
EXTT4=
EXTT5=
EXTT6=
EXTT7=
EXTT8=
EXTT9=
EXTT10=
EXTT11=
EXTT12=
EXTT13=
EXTT14=
EXTT15=
EXTT16=
PLAYORDER=
